<?xml version="1.0" encoding="UTF-8"?>
<svg id="Layer_1" data-name="Layer 1" xmlns="http://www.w3.org/2000/svg" viewBox="0 0 559.79 580.52">
  <defs>
    <style>
      .cls-1 {
        letter-spacing: .1em;
      }

      .cls-2 {
        letter-spacing: .1em;
      }

      .cls-3 {
        fill: #dd5b24;
        font-size: 193px;
        letter-spacing: .1em;
      }

      .cls-3, .cls-4 {
        font-family: SinhalaMN-Bold, 'Sinhala MN';
        font-weight: 700;
      }

      .cls-4 {
        font-size: 32.93px;
      }

      .cls-4, .cls-5 {
        fill: #3b5b2f;
      }

      .cls-6 {
        letter-spacing: .03em;
      }

      .cls-7 {
        letter-spacing: .09em;
      }

      .cls-8 {
        fill: #99bb6e;
      }

      .cls-8, .cls-5 {
        stroke-width: 0px;
      }
    </style>
  </defs>
  <text class="cls-3" transform="translate(0 509.57)"><tspan x="0" y="0">LEAF</tspan></text>
  <g>
    <path class="cls-5" d="m393.45,74.7c-56.49,8.84-100.78,49.08-120.31,101.54-1.84,4.95-3.59,9.93-5.24,14.95-.2.6-.38.59-.53-.02-8.15-32.24-22.69-59.83-47.6-81.09-21.39-18.27-46.25-30.32-74.58-36.17-1.01-.21-1.51.2-1.51,1.23l-.29,67.99c0,.25-.12.34-.36.27l-23.63-6.78c-.23-.07-.34-.22-.34-.45-.47-30.36-.56-55.68-.27-75.97.01-.65.35-1.39,1.03-2.22,4.19-5.15,8.25-10.12,15.58-9.3,29.58,3.29,56.86,12.8,81.83,28.53.22.14.37.09.46-.16,10-30.09,26.8-55.72,50.39-76.87.27-.24.54-.24.82-.01,23.92,20.35,40.82,47.93,52.89,76.28.17.4.66.55,1.03.32,23.2-14.55,46.97-24.09,74.23-27.47,7.08-.87,10.59-.5,16.1,3.41,5.64,4,6.26,7.37,6.29,14.55.11,22.81.02,45.62-.27,68.43,0,.31-.16.51-.45.6l-24.32,7.39c-.29.09-.43-.02-.43-.31v-68.23c0-.35-.17-.49-.52-.44h0Z"/>
    <path class="cls-8" d="m355.36,162.09c-27.52,15.42-50.01,36.62-67.62,62.74-1.15,1.7-2.64,2.61-4.48,2.74-.62.04-1.14-.46-1.12-1.09.2-6.08,1-12.13,2.41-18.14,3.18-13.54,7.32-27.78,13.07-39.95,14.63-31,42.85-59.27,76.87-68.95.79-.22,1.18.08,1.18.9l-.28,48.67c-.01,1.45-.82,2.78-2.11,3.44-5.85,3.01-11.83,6.23-17.92,9.64h0Z"/>
    <path class="cls-8" d="m162.34,150.45c-.24-.13-.38-.4-.36-.67,1.69-16.57.78-34.13.76-50.76-.01-.81.36-1.06,1.11-.75,17.96,7.44,34.22,17.67,48.79,30.68,26.89,24.02,36.7,59.47,38.57,94.48.03.64-.76.95-1.16.45-11.65-14.61-24.69-29.16-39.18-41.01-14.97-12.25-31.15-23.05-48.53-32.42h0Z"/>
    <g>
      <path class="cls-5" d="m344.22,334.73c-23.19,5.39-43.95,5.65-67.91,5.48-.37-.01-.56-.19-.59-.56-5.83-82.4,49.22-152.58,125.68-176.39,23.74-7.39,49.12-9.04,73.8-6.12,11.24,1.33,16.7,7.49,15.66,19.34-4.03,46.13-26.95,88.4-61.59,118.3-24.35,21.02-53.33,32.58-85.05,39.95m119.23-154.59c-10.45-.02-20.62.51-30.52,1.58-67.44,7.31-127.27,64.43-132.35,133.72-.02.29.12.43.41.42,23.57-1.37,45.05-5.5,64.45-12.39,47.73-16.95,85.06-57.18,97.45-107.21,1.29-5.19,1.53-10.25,1.28-15.43-.02-.38-.33-.68-.72-.69h0Z"/>
      <path class="cls-8" d="m322.37,292.71c17.33-47.93,65.55-93.31,118.61-93.49.34,0,.57.33.47.65-7.46,22.64-20.48,44.24-38.01,60.45-23.11,21.37-49.45,29.39-80.39,33.23-.47.06-.84-.4-.68-.84h0Z"/>
    </g>
    <g>
      <path class="cls-5" d="m194.05,334.73c-31.72-7.37-60.7-18.93-85.05-39.95-34.64-29.9-57.56-72.17-61.59-118.3-1.04-11.85,4.42-18.01,15.66-19.34,24.68-2.92,50.06-1.27,73.8,6.12,76.46,23.81,131.51,93.99,125.68,176.39-.03.37-.22.55-.59.56-23.96.17-44.72-.09-67.91-5.48m-119.23-154.59c-.39.01-.7.31-.72.69-.25,5.18-.01,10.24,1.28,15.43,12.39,50.03,49.72,90.26,97.45,107.21,19.4,6.89,40.88,11.02,64.45,12.39.29.01.43-.13.41-.42-5.08-69.29-64.91-126.41-132.35-133.72-9.9-1.07-20.07-1.6-30.52-1.58h0Z"/>
      <path class="cls-8" d="m215.9,292.71c-17.33-47.93-65.55-93.31-118.61-93.49-.34,0-.57.33-.47.65,7.46,22.64,20.48,44.24,38.01,60.45,23.11,21.37,49.45,29.39,80.39,33.23.47.06.84-.4.68-.84h0Z"/>
    </g>
  </g>
  <text class="cls-4" transform="translate(3.33 572.9)"><tspan class="cls-2" x="0" y="0">VEGAN SUSHI RES</tspan><tspan class="cls-6" x="347.66" y="0">T</tspan><tspan class="cls-7" x="370.72" y="0">A</tspan><tspan class="cls-1" x="397.43" y="0">URANT</tspan></text>
</svg>